<?xml version="1.0" encoding="UTF-8"?><svg id="Layer_2" xmlns="http://www.w3.org/2000/svg" viewBox="0 0 308.5 310"><defs><style>.cls-1{fill:#fffb17;}.cls-1,.cls-2{stroke-width:0px;}</style></defs><g id="Layer_1-2"><polygon class="cls-1" points="238.43 284.93 200.13 288.79 168.01 310 132.31 295.62 94.01 299.47 69.08 270.14 33.38 255.76 24.93 218.21 0 188.88 9.97 151.7 1.53 114.15 27.64 85.86 37.61 48.68 73.88 35.77 99.99 7.49 138.1 12.91 174.36 0 205.58 22.51 243.69 27.93 260.88 62.37 292.11 84.88 291.32 123.37 308.5 157.81 289.92 191.52 289.13 230.01 257.01 251.22 238.43 284.93"/><path class="cls-2" d="m211.17,232.55c0,.96-.32,1.28-.97,1.28-.92-.65.32-1.89.97-1.28Z"/><path class="cls-2" d="m236.38,114.33c-.65-.65-.9-.85-1.39-.85-.13,0-.24-.11-.24-.24,0-.48.27-.8.53-1.11.15-.18.31-.37.42-.59.04-.08.12-.13.21-.13s.17.05.21.13c.07.13.17.28.29.43.06.08.12.18.19.27.11-3.95.22-7.9.35-11.85.08-2.71.15-5.43.23-8.16,0-.47-3.93-2.25-5.97-3.17-.21.11-.47.13-.84.05-.36-.08-.72-.17-1.08-.25-1.72-.42-3.5-.85-5.2-.48-.22.05-.41.09-.62.06-.11-.02-.21-.06-.3-.09-.04-.02-.09-.03-.13-.05-.28-.09-.64-.01-.86.2l-.04.04c-.1.1-.24.24-.44.25-.18,0-.34-.1-.45-.17l-.05-.04c-.27-.19-.67-.16-.92.05-.07.06-.14.14-.2.21-.19.22-.44.5-.81.46-.2-.01-.35-.11-.48-.2l-.1-.06c-.11-.07-.2-.06-.22-.05-.02.02-.04.1-.05.13l-.26.89c-.03.11-.09.32-.28.43-.24.14-.51.02-.63-.03l-1.54-.69c-.13.31-.23.64-.3.97-.01.07-.07.13-.13.17-.28.13-.56.02-.79-.07-.18-.07-.31-.12-.36-.07-.03.04-.05.14-.06.23-.03.18-.07.45-.33.56-.14.06-.27.03-.37.01l-.17-.03c-.24-.05-.4-.09-.61-.02-.54.16-1.1.43-1.63.7-.34.17-.68.33-1.01.47-.22.09-.44.18-.69.23-.22.04-.44.04-.65.03-.23,0-.46,0-.66.05-.12.03-.24.09-.36.14-.21.1-.46.21-.74.21h-.01c-.17,0-.34-.05-.49-.09-.18-.05-.33-.09-.45-.06-.1.03-.2.12-.31.22-.13.12-.27.25-.46.32-.35.13-.68-.02-.97-.15-.16-.07-.31-.14-.45-.16-.35-.05-.66.15-1.01.36-.32.19-.65.39-1.03.44-.26.04-.51,0-.75-.05-.14-.02-.28-.05-.42-.05-.44-.02-.89.16-1.19.48l-.08.09c-.13.15-.28.32-.52.4-.2.06-.38.03-.55,0-.05,0-.09-.02-.14-.02-.48-.05-.92.17-1.4.42-.46.23-.93.47-1.46.49-.1,0-.21,0-.31,0-.27-.01-.52-.03-.66.11-.03.03-.05.07-.08.1-.04.06-.09.13-.16.19-.24.21-.6.25-1,.1-.09-.03-.17-.07-.26-.11-.15-.07-.29-.14-.43-.16-.19-.02-.26.05-.43.38-.16.32-.38.82-1.09.75-.5-.04-.92-.33-1.25-.6-.66.86-1.65,1.45-2.72,1.6-.14.02-.29.03-.43.05-.32.03-.62.05-.88.16-.13.05-.34.22-.54.38-.42.32-.88.69-1.32.69-.04,0-.08,0-.11,0-.2-.03-.36-.14-.49-.32-.6-.88.34-1.52.84-1.86.1-.07.19-.13.27-.19,1.32-1.06,2.8-1.46,4.24-1.85.89-.24,1.81-.49,2.68-.9.24-.11.48-.37.7-.62.29-.33.6-.67.99-.76.64-.15,1.13.27,1.52.6l.18.15c.58.47.78.49,1.38.12.98-.6,2.14-.65,3.27-.7.85-.04,1.64-.07,2.37-.32.29-.1.59-.24.88-.37.66-.31,1.33-.63,2.11-.57.1,0,.21.01.32.02.4.02.84.04,1.19.12.53-.92,1.59-1.11,2.54-1.28.23-.04.46-.08.67-.13.96-.23,1.83-.76,2.67-1.27l1.02-.63c.51-.31,1.02-.62,1.52-.94.49-.31,1.05-.65,1.68-.72.3-.04.59,0,.88.02.1.01.21.02.31.03.08,0,.15,0,.23,0,.87,0,1.6-.34,2.35-.69.67-.31,1.36-.63,2.16-.72.77-.08,1.57.07,2.35.21.37.07.74.12,1.1.17-4.51-2.33-9.02-4.67-13.53-7-8.04-4.17-16.09-8.33-24.11-12.5-8.31-4.3-16.62-8.6-24.93-12.9-6.88-3.57-13.76-7.13-20.63-10.7-3.63-1.87-7.38-4.39-11.23-5.81-1.38-.52-2.64,1.74-3.17,3.1-.73,1.85-.76,3.53.08,5.27.23.48.32,1.09,0,1.49-.55.67-1.64.19-2.5.31-.31.06-.61.19-.92.27-1.3.4-2.67.1-4.01.06-1.2-.04-2.75.25-3.46,1.34-.57.88-.08,2.18-1.05,2.94-.8.61-2.1.36-2.75,1.13-.75.86-.36,2.6-1.43,2.92-.4.11-.82-.06-1.22-.04-.82.04-1.43.78-1.87,1.47-.69,1.07-1.26,2.2-1.72,3.36-.38-.32-.99-.08-1.36.27s-.69.78-1.18.88c-.31.08-.61,0-.9.1-.78.29-.69,1.6-1.43,2.01-.27.13-.57.13-.84.25-.55.29-.67,1.03-1.15,1.41-.57.46-1.55.29-1.95.88-.19.27-.21.61-.34.92-.42.9-1.68,1.01-2.43,1.68-.82.76-.97,2.22-2.03,2.62-.48.19-1.2.36-1.03.84-.5-.27-1.22,0-1.41.53-.8.25-1.6.5-2.41.73,0,.46.02.76-.31,1.07,2.77,1.59,5.85,2.83,8.73,4.2,5.22,2.52,10.45,5.02,15.69,7.53l-7.22-2.16,1.87,118.46c-3.04-.92-6.09-1.83-9.15-2.75-2.2-.67-4.39-1.32-6.61-1.99-2.16-.65-3.32-1.41-4.38.94-.23.48-.63.84-.97,1.26-1.09,1.38-1.32,3.29-2.37,4.68-.96,1.28-2.52,1.99-4.11,2.08-1.7.11-2.67,4.36-2.89,5.73-.61,3.94-2.85,7.45-3.42,11.41-.31,2.01-.21,4.17-1.24,5.9-.34.59-.84,1.17-.88,1.85-.02.52.25.99.34,1.51.46,2.29-2.08,5.27-2.64,7.51,6.04,1.6,12.86,2.31,19.07,3.08,13.85,2.2,27.7,4.41,41.56,6.61,13.81,2.18,27.61,4.38,41.4,6.57,3.8.59,7.62,1.2,11.43,1.8,1.28.21,2.58.42,3.88.63.4.06.97.27,1.39.21,1.66-.19,1.13-1.74,2.71-2.24.88-.29,1.81-.08,2.71.15.48-1.85.96-3.71,1.43-5.56.86-.04,1.74-.08,2.62-.11-.5-.65.08-1.57.73-2.04.67-.48,1.49-.86,1.72-1.64.15-.53-.02-1.17.31-1.6.32-.5,1.03-.52,1.55-.78,1.83-.92,1.26-4.34,3.19-5.02.44-.15.92-.11,1.34-.31.59-.27.92-.9,1.18-1.49.73-1.55,4.57-6.52,1.11-5.6-.27.84-.75,1.85-1.64,1.85-.67.02-1.26-.61-1.93-.54-.36.04-.67.27-.96.48-.97.78-1.93,1.55-2.9,2.31-.29.21-.59.44-.94.55-.32.08-.67.06-.99.08-3.08.11-5.1,3.27-7.97,4.39-1.01.4-2.12.53-3.15.92-1.82.69-3.5,3.19-5.75,2.54-2.27-.63-.52-3.95.97-3.23.19-.34.21-.69.31-1.07,1.6.9,2.62,0,3.67-.96.8-.73,2.16-.44,2.9-1.22.17-.17.29-.42.48-.57.34-.31.86-.27,1.32-.32,1.17-.13,2.22-1.05,2.5-2.18.55.76,1.81.44,2.5-.23.69-.67,1.13-1.59,1.95-2.08.61-.36,1.36-.44,2.03-.65.69-.19,1.38-.63,1.53-1.34.69-.31,1.66.44,2.22-.08.15-.13.23-.32.34-.48.59-.82,2.9-.4,3.9-.78,1.01-.4,1.45-1.24,2.27-1.82,1.49-.99,3.15-1.47,4.85-1.78,1.81-.31,3.5-1.39,5.39-1.34.46.02.96.1,1.36-.1.29-.11.5-.34.74-.53,1.2-.97,2.92-.8,4.45-.59.06.52.34,1.2.84,1.07.13-.04.25-.13.36-.23.67-.5,1.61-.59,2.35-.27.21.1.46.23.67.11.29-.13.27-.54.31-.84.13-.84.9-.69,1.17-1.34.08-.21.02-.63.02-.86.04-.99.06-1.99.1-2.96.15-5.75.32-11.5.5-17.25.25-8.56.5-17.12.74-25.7.27-9.67.55-19.34.84-29,.25-9.06.52-18.11.78-27.19.06-2.07.12-4.14.18-6.22-.06,0-.11-.02-.15-.06Zm-28.08-34.41c.25-.53.79-.68,1.42-.42.89.37,1.76,1.44,1.51,2.17-.03.1-.13.16-.23.16-.02,0-.04,0-.05,0-.76-.17-1.2-.58-1.6-.94-.3-.27-.55-.51-.91-.63-.06-.02-.12-.07-.14-.13-.03-.06-.02-.13,0-.2Zm-.24,3.07c.06-.05.15-.05.22-.03.75.29,1.34.71,1.96,1.15.7.49,1.42,1,2.4,1.34.09.03.15.11.16.2.01.09-.03.18-.11.23-.27.17-.58.25-.93.25-.49,0-1.04-.16-1.62-.49-1.16-.65-2.18-1.79-2.18-2.45,0-.08.04-.15.1-.2Zm-7.49,1.05c.04.11-.01.23-.12.28-.23.12-.46.17-.7.17-.23,0-.45-.05-.68-.15-.91-.41-1.56-1.52-1.77-2.38-.02-.07,0-.15.04-.21s.12-.09.19-.09c1.11,0,2.74,1.39,3.04,2.37Zm-6.99-8.22c.49-.63,1.43-.68,2.47-.13.86.46,1.61,1.26,1.39,1.91-.03.1-.12.16-.23.16-1.2,0-1.82-.49-2.36-.92-.35-.28-.68-.54-1.15-.66-.08-.02-.14-.08-.17-.15-.03-.08-.01-.16.04-.22Zm-97.76-5.48c0-.08.02-.15.07-.21.06-.05.13-.07.21-.06,1.97.4,5.22,1.38,4.88,3.4-.01.09-.08.16-.16.19-.02,0-.05.01-.07.01-.06,0-.12-.02-.17-.07-.43-.43-1.13-.61-1.87-.82-1.25-.34-2.68-.72-2.9-2.45Zm1.95,4.83c-.07-.07-.09-.19-.04-.28.25-.48,1.13-1.1,1.72-.95.23.06.61.27.61,1.07,0,.06-.02.12-.07.17-.28.28-.87.31-1.11.31s-.83-.03-1.11-.31Zm3.15,2.2s-.11.07-.17.07c-.59,0-.87-.23-1.1-.42-.16-.13-.27-.22-.47-.22-.07,0-.14-.03-.19-.09-.04-.06-.06-.13-.04-.21.11-.41.39-.67.76-.71.49-.05,1.1.3,1.32.77.14.29.1.59-.12.81Zm2.14-4.65c-.28.14-.53.2-.76.2-.73,0-1.25-.6-1.65-1.07-.13-.15-.26-.3-.38-.42-.08-.08-.1-.21-.03-.31.23-.34.58-.5.99-.44.82.11,1.71,1.01,1.96,1.74.04.11-.01.23-.12.29Zm2.33-2.37c-.01.08-.07.15-.15.18-.03.01-.06.02-.09.02-.05,0-.1-.01-.14-.04-.34-.25-.73-.47-1.11-.7-1.06-.62-2.15-1.26-2.15-2.31,0-.08.04-.16.11-.2.07-.05.16-.05.23-.01.22.11.46.22.72.33,1.27.56,2.84,1.26,2.57,2.74Zm4.31.11c.06.06.09.16.06.25-.17.49-.68.72-1.19.72-.17,0-.35-.03-.51-.08-.54-.18-.8-.63-.64-1.12.01-.04.03-.07.06-.1.22-.21.48-.3.74-.31-.18-.17-.34-.38-.47-.65-.09-.19-.11-.36-.06-.52.09-.26.34-.38.52-.47.05-.03.12-.06.16-.09.02-.11.12-.19.23-.19.42,0,.78.21,1.02.59.3.48.35,1.17.12,1.64-.04.08-.12.13-.21.13-.03,0-.04,0-.07,0,.09.07.17.13.24.2Zm-30.46,152.15s-.08-.01-.12-.03c-.35-.2-.69-.37-1.02-.53-.59-.29-1.15-.56-1.6-.98-.05-.04-.07-.1-.08-.17,0-.24.05-.43.19-.56.25-.26.68-.26,1.14-.25.35,0,.71,0,1.01-.1.11-.04.23,0,.29.11.2.34.82,1.53.41,2.38-.03.06-.08.1-.15.12-.02,0-.04.01-.07.01Zm2.13,13.07s-.1.07-.17.08c-.03,0-.06,0-.09,0-1.06,0-1.74-.74-1.77-1.45,0-.07.02-.14.07-.18.07-.07.13-.15.18-.22.16-.22.34-.47.92-.49.08.02.17.04.22.12l.15.25c.41.69.88,1.47.49,1.89Zm6.78-12.78c-.24.13-.48.26-.71.36.06.04.13.05.18.11.35.35.51,1.02.34,1.43-.08.21-.24.33-.44.36-.1.03-.19.04-.28.04-.25,0-.47-.12-.63-.36-.27-.41-.27-1.1-.1-1.46-.08-.03-.15-.08-.21-.14-.04-.04-.06-.1-.07-.16-.01-.39.16-.69.31-.95.13-.22.24-.41.24-.64,0-.08.04-.16.1-.2.06-.05.15-.06.23-.03.58.23,1.12.57,1.15,1.42,0,.09-.04.18-.13.22Zm3.18,16.41c-.04.07-.12.11-.2.11-.04,0-.07,0-.1-.02-.79-.38-.82-2.1-.53-2.81.04-.11.17-.17.27-.14.63.13.89.47,1,.73.32.76-.2,1.75-.44,2.14Zm2.42-27.33s-.06.05-.09.06c-.1.04-.21.06-.32.06-.18,0-.37-.06-.53-.18-.21-.15-.39-.39-.5-.68-.11-.29-.14-.59-.09-.85.07-.32.26-.55.55-.67.04-.01.08-.02.12-.02.4,0,.73.22.92.64.24.54.21,1.33-.07,1.63Zm94.23-111.76s.06-.04.09-.06c.6-.21.94.13,1.13.33.05.05.15.15.18.15.01,0,.07-.02.16-.11.02-.02.04-.03.06-.04.04-.07-.04-.19-.1-.27-.13-.19-.27-.4-.21-.64.04-.14.14-.26.31-.34.07-.04.16-.03.24.01.33.22.67.31.99.4.52.14,1.06.29,1.27.98.03.11-.01.22-.11.28-.7.41-1.39.7-2.06.99-.83.35-1.62.68-2.29,1.2-.04.03-.09.05-.15.05-.02,0-.04,0-.05,0-.07-.02-.13-.06-.16-.13-.36-.72-.03-2.09.68-2.8Zm-1.09,34.15c.35-.4.77-.4,1.1-.4.06,0,.12.03.17.07.2.2.31.49.31.79s-.11.59-.31.79c-.04.04-.1.07-.17.07-.75,0-1.16-.41-1.16-1.16,0-.06.02-.11.06-.16Zm-.96,19.72c.07-.07.17-.1.26-.06,1.34.55,1.44,1.34,1.56,2.35.04.29.07.6.15.95.01.07,0,.14-.05.2-.04.06-.11.09-.18.09-.06,0-.24.07-.38.13-.31.13-.71.28-1.1.28-.18,0-.35-.03-.52-.12-.06-.03-.1-.08-.12-.15-.29-.98.24-1.4.79-1.7-.43-.47-1.05-1.31-.42-1.98Zm.49-.56c-.09,0-.17-.05-.21-.13l-.07-.13c-.33-.61-.88-1.62-.24-2.6.04-.07.12-.11.2-.11.73,0,1.1.46,1.43.86.3.38.57.7,1.1.7.08,0,.16.04.2.11.04.07.05.16.01.23-.39.78-1.5,1.06-2.42,1.06Zm-.81-22.01s.11-.07.17-.07c.41,0,.73.23.89.64.25.63.06,1.53-.41,1.98-.04.04-.1.07-.16.07-.04,0-.08,0-.11-.03-.37-.2-.65-.65-.74-1.19-.09-.54.04-1.05.36-1.39Zm-2.49-55.99c-.3-.35-.58-.68-1.06-.9-.07-.03-.12-.1-.13-.17-.01-.07.02-.14.06-.19-.07.01-.14.04-.21.04-.29,0-.59-.07-.89-.14-.3-.07-.61-.14-.9-.14-.11,0-.21-.08-.23-.19-.15-.76.28-1,.48-1.07.76-.27,2.19.4,2.46.91.05.09.03.2-.04.28,0,0,0,0-.01,0,.61-.09,1.35.18,1.92.6.9.66,1.27,1.5.94,2.15-.04.08-.13.13-.21.13-.01,0-.02,0-.04,0-1.18-.18-1.67-.74-2.14-1.29Zm-3.6-4.4s-.11.07-.17.07c-.04,0-.07,0-.11-.03-.68-.34-1.06-.73-1.06-1.78,0-.13.11-.24.24-.24.06,0,.17-.04.28-.09.22-.1.53-.23.96-.23.13,0,.24.11.24.24,0,.15.02.3.04.45.06.49.13,1.04-.43,1.61Zm.75-.15c-.11-.23-.29-.6.21-.87.06-.03.13-.04.19-.02.89.3,1.66.63,2.04,1.71.02.06.02.13-.01.19-.16.32-.42.41-.7.41-.26,0-.53-.08-.76-.15-.23-.07-.46-.13-.64-.13-.08,0-.15-.04-.19-.1-.04-.06-.06-.14-.03-.22.13-.37.01-.6-.1-.83Zm7.1,22.96c-.24.38-.63.59-1.08.59-.14,0-.29-.02-.44-.07-.64-.18-1.09-.7-1.09-1.25,0-.08.04-.15.1-.2.85-.59,1.51-.07,1.99.3.15.11.29.22.42.29.06.03.1.08.12.15.02.06,0,.13-.03.19Zm1.16-25.24c.62.21.91.62.75,1.09-.01.04-.03.07-.06.09-.2.2-.43.27-.67.27-.32,0-.67-.13-.99-.26-.34-.13-.68-.27-1-.27-.08,0-.15-.04-.19-.1-.04-.06-.06-.14-.03-.22.26-.78,1.47-.86,2.19-.62Zm-1.64,2.95c.13,0,.24.11.24.24,0,.54-.16.91-.49,1.11-.17.11-.38.15-.6.15-.69,0-1.52-.42-1.98-.66l-.13-.06c-.08-.04-.13-.12-.13-.21,0-.69,0-1.34.39-1.73.07-.06.16-.08.25-.06.41.14.76.39,1.1.63.44.31.86.6,1.35.6Zm-3.5-3.86c.9.28,1.55.82,1.84,1.52.05.12,0,.26-.13.31-.33.13-.66.19-1,.19-1.42,0-2.83-1-3.34-1.48-.05-.05-.08-.12-.07-.19,0-.07.05-.14.11-.18.6-.4,1.64-.46,2.6-.17Zm-5.17-1.62c.35-.73,1.13-1.14,1.84-.97.69.16,1.1.79,1.1,1.68,0,.06-.02.12-.07.17-.15.15-.43.2-.71.2-.24,0-.47-.03-.61-.06-.3-.05-1.29-.26-1.55-.81-.03-.07-.03-.14,0-.21Zm-4.98-.05c.13-.14.26-.2.38-.24.2-.08.44-.18.84-.95.04-.08.12-.13.21-.13.68,0,1.36.43,1.52.96.05.17.05.34,0,.5,1.25-.11,2.21.45,2.48,1.53.02.07,0,.15-.04.21-.04.06-.11.09-.19.09-.12,0-.35,0-.4.04,0,.08-.04.18-.12.22-.05.03-.1.05-.15.05-.03,0-.06,0-.08-.02-.4-.21-1-.31-1.63-.42-1.24-.21-2.65-.45-2.87-1.64-.01-.07,0-.15.06-.2Zm-6.72-6.17c.48-.46,1.49-.42,2.24-.19.1.03.17.12.17.23,0,.78,0,1.52-.52,1.52-.91,0-1.69-.03-2.05-.39-.03-.03-.05-.07-.06-.11-.14-.55.05-.88.23-1.05Zm-1.17,10.27c.23-.43.91-.58,1.47-.58s1.25.15,1.47.58c.02.03.03.07.03.11,0,.61-.61.8-1.1.95-.21.06-.42.13-.59.22-.04.02-.07.03-.11.03-.77,0-1.2-.43-1.2-1.2,0-.04,0-.08.03-.11Zm-.91,13.76c.66-.89,1.24-.81,1.9-.72.38.05.82.11,1.38,0,.12-.02.21.03.26.13.08.17.15.34.21.51.17.47.32.87.95,1.28.06.04.1.1.11.18,0,.07-.02.14-.07.19-.37.37-.72.51-1.04.51-.57,0-1.08-.43-1.55-.83-.57-.49-1.16-.99-1.91-.86-.1.02-.19-.03-.24-.11-.05-.08-.05-.19.01-.27Zm1.46,15.51c.57.2,1.05.71.84,1.31-.01.03-.03.07-.06.09-.21.21-.42.29-.62.29-.4,0-.77-.3-1.07-.55-.17-.13-.32-.26-.47-.34-.1-.06-.15-.18-.11-.29.21-.61.91-.72,1.49-.52Zm-6.45-13.61c.44-.13.9.15,1.34.42.26.16.53.33.79.4.1.03.17.12.17.23,0,.22-.1.41-.18.59-.07.14-.14.27-.14.37,0,.13-.11.24-.24.24-.81,0-1.18-.38-1.5-.71-.22-.22-.42-.44-.77-.54-.07-.02-.12-.07-.15-.13-.03-.07-.03-.14,0-.2.18-.37.4-.58.68-.66Zm-4.34-24.83c1.2-.6,2.39-.15,3.25.17.13.05.26.1.38.14.1.03.16.12.16.23,0,.93-.66,1.07-1.15,1.18-.54.12-.83.18-.7.95.01.08-.01.16-.07.22-.04.04-.1.06-.16.06-.02,0-.04,0-.06,0-1.15-.29-1.39-1.22-1.6-2.05-.05-.2-.1-.4-.17-.59-.04-.11.01-.24.12-.29Zm-2.38,27.52c.46,0,1.26.3,1.55.86.07.14.13.33.1.55.04,0,.08,0,.12,0,.93,0,1.73,1.15,2.19,1.83.04.06.05.14.03.21-.02.07-.08.13-.15.15-.23.08-.46.12-.7.12-.53,0-1.07-.19-1.6-.57-.98-.7-1.78-2-1.78-2.9,0-.13.11-.24.24-.24Zm-.4-8.83c0,.08-.04.16-.11.2-.21.14-.45.2-.7.2-.51,0-1.05-.26-1.39-.63-.49-.54-.53-1.23-.08-1.8.04-.06.1-.09.17-.09.07-.01.13.02.18.07.17.17.41.29.67.42.56.28,1.25.62,1.25,1.63Zm-4.42-13.07c.64-.42,1.49-.13,2.04.34.47.4.67.88.51,1.23-.04.09-.12.14-.22.14-1.17,0-2.03-.25-2.43-1.44-.04-.1,0-.22.1-.28Zm-3.83.06c.04-.06.12-.1.19-.1.54,0,2.17,0,2.81.79.24.29.31.65.23,1.06-.02.08-.07.15-.15.18-.15.05-.31.08-.49.08-.35,0-.75-.1-1.15-.3-.72-.35-1.29-.93-1.47-1.49-.02-.07-.01-.15.03-.22Zm2.63,19.63c-.14.67-.48.91-.75.99-.1.03-.22.05-.33.05-.68,0-1.45-.54-1.84-.91-.07-.06-.09-.16-.06-.25.29-.89,1.35-.56,2.04-.34.27.09.55.17.71.17.07,0,.14.03.18.09.04.06.06.13.05.2Zm-3.89-4.88s.03-.04.04-.06c.41-.41.78-.28,1.11-.16.3.11.65.23,1.21.1.07-.02.15,0,.21.04.06.05.09.11.09.19,0,.28.06.5.13.73.07.25.15.51.15.87,0,.08-.04.16-.11.2-.18.12-.4.17-.62.17-.55,0-1.18-.32-1.63-.72-.55-.49-.77-.99-.59-1.35Zm-6.2-8.5c.1-.08.24-.08.33.01.41.41,1.02.69,1.55.93.2.09.39.18.56.27.11.06.16.2.1.32-.25.52-.61.68-.98.68-.4,0-.82-.19-1.13-.34-.23-.1-.46-.21-.59-.21s-.24-.11-.24-.24c0-.67,0-1.07.4-1.42Zm2.77,42.98c-.01.07-.06.14-.12.17-.22.11-.44.16-.65.16-.46,0-.92-.2-1.33-.39l-.11-.05c-.09-.04-.14-.12-.14-.22,0-.48.26-.9.7-1.13.42-.21.91-.19,1.25.06.21.16.55.55.41,1.39Zm-3.47-7.67c.15-.18.31-.37.42-.59.04-.08.12-.13.21-.13s.17.05.21.13c.07.13.17.28.29.43.38.52.91,1.23.35,2.31-.04.07-.1.11-.18.13-.01,0-.02,0-.04,0-.06,0-.12-.03-.17-.07-.65-.65-.9-.85-1.39-.85-.13,0-.24-.11-.24-.24,0-.48.27-.8.53-1.11Zm-.8,9.48c.44-.17.93-.09,1.24.2.2.18.49.61.25,1.42-.02.07-.07.13-.14.16-.17.07-.34.1-.51.1-.52,0-1-.28-1.44-.54l-.1-.06c-.08-.05-.13-.14-.12-.23.05-.48.36-.87.82-1.04Zm-2.52-36.42c-.02.07-.07.13-.13.16-.19.09-.43.13-.69.13-.29,0-.61-.06-.91-.17-.44-.16-.75-.42-.89-.73-.02-.05-.03-.11,0-.17.2-.64,1.01-.83,1.7-.64.73.2,1.09.76.93,1.41Zm.31,5.8c.04.11-.01.24-.12.29-.34.17-.85.26-1.33.26s-.94-.1-1.15-.31c-.04-.04-.07-.11-.07-.17,0-.7.38-1.08.71-1.41.04-.04.1-.07.17-.07.6,0,1.39.24,1.79,1.4Zm-.76-9.84c.07.04.11.1.13.18.01.08-.01.15-.07.21-.49.49-1.16.58-1.96.28-.33-.12-.68-.32-1.02-.56.11.2.18.4.13.6-.04.15-.15.27-.33.36-.2.05-.37.07-.51.07-.6,0-.79-.35-.93-.62-.09-.17-.17-.32-.34-.41-.08-.04-.13-.12-.13-.21,0-.55.35-.75.75-.83l-.32-.21c-.1-.07-.14-.2-.08-.31.37-.74.78-1.09,2.1-1.09.13,0,.24.11.24.24,0,1.1,1.1,1.66,2.26,2.26l.1.05Zm-4.56,7.11c0,.08-.04.16-.11.2-.26.17-.51.24-.74.24-.5,0-.91-.32-1.24-.57-.15-.12-.29-.23-.43-.3-.1-.05-.15-.17-.12-.28.14-.47.6-.7,1.21-.61.7.11,1.42.63,1.42,1.32Zm1.1-14.47c.03-.1.13-.16.23-.16.05,0,.06,0,.17-.18.07-.11.15-.25.3-.39.04-.04.1-.07.17-.07.68,0,.87.33,1.01.59.09.15.15.28.33.36.11.05.16.18.12.29-.12.37-.44.63-.87.71-.1.02-.21.03-.32.03-.4,0-.79-.15-1.01-.4-.19-.22-.24-.5-.14-.79Zm-2.3,3.25c.17-.13.32-.25.42-.46.04-.08.12-.14.22-.14.52,0,.86.19,1.22.39.13.07.28.15.44.23.12.06.17.19.12.31-.07.17-.13.33-.18.49-.15.46-.3.94-.87,1.19-.03.01-.06.02-.1.02-.04,0-.08-.01-.12-.03l-1.56-.92c-.07-.04-.12-.12-.12-.21,0-.48.28-.69.52-.88Zm-.43,6.68c.14.28.15.57.05.86-.02.07-.07.12-.14.14-.03.01-.06.02-.09.02-.04,0-.08,0-.11-.03-.65-.35-1.23-.61-2.09-.61-.13,0-.24-.11-.24-.24,0-.62,0-1.02.39-1.41.07-.06.16-.09.24-.06.72.24,1.65.67,1.98,1.33Zm-8.42,20.98c.06.02.11.07.13.12.78,1.67-.52,3.74-1.08,4.4-.04.05-.11.08-.18.08h0c-.07,0-.14-.04-.18-.1-.42-.58-.54-1.62-.29-2.59.21-.81.65-1.43,1.23-1.78-.45-.05-.75-.31-1.04-.58-.03-.03-.07-.05-.1-.08,0,.08-.02.15-.03.23-.15,1.25-.32,2.67-1.5,2.94-.02,0-.04,0-.05,0-.05,0-.11-.02-.15-.05-.15-.12-.21-.25-.26-.36-.09-.19-.2-.43-.99-.79-.08-.04-.14-.12-.14-.21-.03-.68.36-1.38.88-1.57.17-.06.34-.06.5-.01-.17-1.25.35-2.23,1.41-2.56.07-.02.15-.01.21.03.06.04.1.11.1.18,0,.11.02.35.06.39.07,0,.18.04.23.11.05.07.07.16.04.23-.03.06-.04.16-.06.23.36-.22.79-.42,1.32-.35.03-.38.13-.77.29-1.11.41-.88,1.17-1.67,1.84-1.48.1.03.17.12.17.22.06,1.2-.4,1.84-.8,2.4-.26.36-.51.7-.6,1.18-.01.08-.07.14-.14.18-.03.01-.06.02-.09.02-.05,0-.1-.01-.14-.04-.09-.07-.14-.16-.2-.24-.31.31-.43.54-.45.89,0,.03-.03.05-.04.08.04,0,.08-.02.12,0Zm-1.57-28.55c.48-.24,1.25-.05,1.75.27.51.31.79.75.79,1.19,0,.09-.05.17-.13.21-.15.07-.33.11-.52.11-.42,0-.89-.16-1.24-.37-.51-.31-.8-.75-.8-1.19,0-.09.05-.17.13-.21Zm-1.3,22.75c.11.18.21.35.33.46.29-.21.75-.38,1.13-.39.25-.02.48.06.62.2.06.06.08.15.06.23-.21.83-.73.89-1.07.93-.28.03-.41.05-.5.33-.02.07-.08.13-.15.16-.31.1-.56.14-.78.14-.44,0-.73-.17-1.06-.35-.07-.04-.15-.08-.23-.13-.07-.04-.11-.1-.13-.18s.01-.15.07-.2c.43-.43.28-.74.08-1.13-.15-.29-.31-.63-.13-.98.04-.08.12-.13.21-.13.91,0,1.26.58,1.54,1.04Zm-1.56-8.73c.31-.12.62-.06.86.17.05.04.07.11.07.17s-.02.13-.07.17c-.06.06-.09.21-.11.34-.05.23-.11.53-.36.67-.09.05-.2.08-.33.08s-.26-.03-.41-.08c-.01,0-.03,0-.04-.02-.22-.12-.34-.33-.32-.58.02-.37.33-.78.7-.93Zm.31,33.56c.2.18.49.61.25,1.42-.02.07-.07.13-.14.16-.17.07-.34.1-.51.1-.52,0-1-.28-1.44-.54l-.1-.06c-.08-.05-.13-.14-.12-.23.05-.48.36-.87.82-1.04.45-.17.93-.09,1.24.2Zm-2.55-26.47c.06-.06.16-.08.24-.06.34.11.61.39.78.81.31.75.25,1.83,0,2.34-.04.08-.13.13-.21.13-.03,0-.05,0-.08-.01-.56-.19-1.04-.78-1.2-1.46-.15-.66.02-1.29.47-1.74Zm-.38,42.61c.34-.08.66.02.87.26.04.05.06.11.06.18-.06.53-.19.89-.41,1.11-.19.19-.43.28-.75.28-.06,0-.13,0-.2-.01-.05,0-.09-.03-.13-.06-.29-.26-.41-.58-.33-.92.1-.4.46-.75.89-.85Zm-3.38-10.53s.07-.08.12-.1c.37-.13.78-.03,1.13.25.43.35.66.89.6,1.44,0,.08-.06.15-.13.19-.18.09-.37.13-.55.13-.34,0-.66-.15-.92-.44-.4-.45-.51-1.08-.25-1.48Zm.86,23.81c-.22-.4-.15-.81.19-1.06.05-.04.1-.06.17-.05.89.1,1.04.63,1.18,1.14.03.12.07.25.12.39.05.12-.02.26-.14.31-.1.04-.2.05-.3.05-.48,0-.99-.36-1.22-.78Zm2.5,21.31c-.6,0-1.25-.23-1.54-.58-.04-.05-.06-.12-.06-.18s.04-.13.1-.17c.08-.06.27-.19.37-.28-.04-.03-.08-.05-.13-.08-.14-.08-.31-.19-.51-.35-.06-.04-.09-.11-.09-.18s.03-.14.08-.19c.12-.11.26-.23.4-.34-.06-.05-.13-.09-.17-.14-.04-.05-.06-.12-.06-.18s.04-.13.1-.17c.08-.06.27-.19.37-.28-.04-.03-.08-.05-.13-.08-.14-.08-.31-.19-.51-.35-.06-.04-.09-.11-.09-.18s.03-.14.08-.19c.52-.46,1.23-1.09,2.12-.32.03.02.05.05.07.09.13.31.16.48.07.65h.03c.32,0,.5.17.74.71.02.06.02.12,0,.18-.12.31-.4.5-.76.61.04.16.06.29,0,.41.3-.01.52.15.76.71.02.06.02.12,0,.18-.14.36-.47.6-.92.67-.1.02-.21.03-.33.03Zm2.47,29.61c-.03.1-.13.16-.23.16-.02,0-.04,0-.06,0-1.42-.37-1.74-2.39-1.74-3.07,0-.08.04-.15.1-.19.06-.04.14-.06.22-.03,1.02.35,2.08,2.04,1.71,3.14Zm.29-68.87s-.06,0-.08-.01c-.6-.22-.81-.6-.89-.87-.21-.8.45-1.7.74-2.05.08-.1.21-.11.32-.04.72.49.51,2.2.12,2.86-.04.08-.12.12-.21.12Zm1.16,16.12c.02-.23.11-.41.22-.57-.02,0-.03,0-.05-.01-.54-.31-1.03-.72-.94-1.57,0-.09.07-.17.15-.2.25-.09.51-.18.75-.24-.05-.05-.11-.08-.16-.14-.29-.4-.35-1.08-.13-1.47.11-.19.27-.29.47-.29h.02c.39-.06.69.1.85.44.21.46.1,1.17-.13,1.49.07.04.15.07.21.15.03.05.05.11.04.16-.04.39-.26.66-.44.89-.09.11-.17.22-.23.33,0,0,.01-.02.02-.02.17-.16.35-.33.48-.54.05-.08.14-.11.23-.11.09.01.17.07.2.15.05.14.14.29.24.46.33.56.77,1.32.1,2.34-.04.06-.11.1-.19.11h-.01c-.07,0-.14-.03-.19-.09-.56-.7-.8-.95-1.29-1-.13-.01-.23-.13-.21-.26Zm2.49,64.64s-.09.05-.15.05c-.02,0-.05,0-.07-.01-1.03-.32-2.15-1.96-1.82-3.08.03-.12.16-.2.28-.17,1.33.29,1.82,2.15,1.85,3.01,0,.08-.03.15-.09.2Zm1.47-56.03c-.01.07-.06.14-.12.17-.22.11-.44.16-.65.16-.46,0-.92-.2-1.33-.39l-.11-.05c-.09-.04-.14-.12-.14-.22,0-.48.26-.9.7-1.13.42-.21.91-.19,1.25.06.21.16.55.55.41,1.39Zm-.42-17.29c-.64-.18-.99-.68-.92-1.3,0-.09.07-.16.15-.2.78-.31,1.53-.13,2.4.6.08.07.11.19.06.28-.22.47-.73.68-1.22.68-.16,0-.32-.02-.46-.06Zm2.47,20.62c-.02.07-.07.12-.14.14-.03.01-.06.02-.09.02-.04,0-.08,0-.11-.03s-.06-.06-.1-.08c.08.1.16.22.2.37.12.46-.06.94-.46,1.21-.04.03-.09.04-.14.04-.06,0-.12-.02-.17-.07-.08-.08-.16-.14-.23-.19-.22-.16-.48-.35-.48-.9,0-.04,0-.07.02-.11.29-.59.64-.63.82-.62.1.01.18.08.26.13-.48-.43-.79-1.22-.79-2.16,0-.13.11-.24.24-.24h.92c.13,0,.24.11.24.24,0,.17.03.35.06.55.07.45.17,1.01-.07,1.7Zm.03-108.45c-.44-.07-.86-.14-1.32-.01-.08.02-.16,0-.22-.05-.06-.05-.09-.13-.08-.21.12-.79.92-1.29,2.1-1.32.03,0,.05,0,.08,0,.29,0,.58.04.86.11,0-.05-.03-.1-.02-.15,0-.07.04-.13.09-.17.05-.04.12-.06.19-.05.39.06.77.1,1.14.13.66.06,1.28.11,1.85.34.06.02.11.07.13.13.09.22.1.42.03.59-.15.33-.55.49-.98.64-.33.12-.67.25-.91.45-.04.04-.1.06-.15.06s-.11-.02-.15-.05c-.12-.1-.36-.32-.59-.59-.41.16-.79.25-1.12.25s-.62-.05-.9-.09Zm1.34,37.43c.02-.06.07-.11.12-.14,1.11-.53,2.73-.03,3.16.56.19.26.18.55-.04.78-.02.02-.04.04-.07.05-.13.07-.26.09-.39.09-.24,0-.46-.09-.65-.16-.37-.15-.55-.21-.77.02-.04.05-.11.07-.17.07-.42,0-.81-.36-1.17-1.09-.03-.06-.03-.12-.01-.18Zm.6,60.81c-.3-.76-.48-1.79-.06-2.41.04-.06.1-.09.16-.1.08-.01.13,0,.19.05.31.25.63.46.93.67.54.37,1.06.72,1.45,1.2.04.05.06.11.05.17-.02.24-.11.42-.27.53-.15.11-.34.15-.54.15-.19,0-.4-.03-.62-.07-.35-.05-.71-.11-1.02-.05-.12.03-.22-.04-.27-.15Zm.83,34.38c.09-.2.25-.33.45-.34.37-.1.7.02.89.34.29.49.22,1.36-.04,1.63-.03.03-.06.05-.1.06-.1.03-.2.05-.29.05-.24,0-.45-.1-.63-.29-.33-.36-.46-1.04-.29-1.44Zm1.72,5.32c-.04.09-.13.14-.22.14-.02,0-.04,0-.06,0-.62-.15-.87-.5-.98-.77-.3-.77.26-1.74.51-2.12.07-.1.2-.14.31-.08.77.41.74,2.13.43,2.83Zm8.83-18.61c.05.29.1.58.03.86l.35.04c.07,0,.13.05.17.1.2.3.24.74.11,1.2-.16.54-.54.96-1.01,1.25l.52,31.19h-5.81l-3.63-112.5c2.54,1.22,5.08,2.45,7.62,3.69l1.19,71.37c.1.18.2.36.3.54.29.54.59,1.1,1,1.6.07.08.07.19.02.28-.12.19-.33.3-.55.3h0c-.08,0-.21-.02-.35-.09,0,.06.02.11.03.17Zm1.46-26.54s.06-.09.11-.11c.35-.16.77-.11,1.15.13.47.3.75.81.75,1.37,0,.08-.04.16-.11.2-.21.13-.43.2-.66.2-.29,0-.59-.12-.84-.35-.44-.4-.62-1.02-.41-1.44Zm.55,39.05s.07-.08.12-.1c.36-.12.78-.03,1.13.25.43.35.66.89.6,1.44,0,.08-.06.15-.13.19-.18.09-.37.13-.55.13-.34,0-.66-.15-.92-.44-.4-.45-.51-1.08-.25-1.48Zm1.04,22.75s.1-.06.17-.05c.89.1,1.04.63,1.18,1.14.03.12.07.25.12.39.05.12-.02.26-.14.31-.1.04-.2.05-.3.05-.48,0-.99-.36-1.22-.78-.22-.4-.15-.81.19-1.06Zm2.58,23.66c-.31.18-.63.27-.96.27-.46,0-.94-.17-1.5-.51-.09-.06-.13-.17-.1-.27.2-.66.95-.93,1.58-.85.65.09,1.08.53,1.1,1.15,0,.09-.04.17-.12.22Zm.26-34.32c-.19.19-.43.28-.75.28-.06,0-.13,0-.2-.01-.05,0-.09-.03-.13-.06-.29-.26-.41-.58-.33-.92.1-.4.46-.75.89-.85.34-.08.66.02.87.26.04.05.06.11.06.18-.06.53-.19.89-.41,1.11Zm.57-27.01c-.12.06-.25.09-.39.09-.45,0-.94-.28-1.19-.64-.26-.37-.23-.79.07-1.07.04-.04.1-.07.16-.07.89,0,1.1.51,1.3,1.01.05.12.1.24.16.37.06.12,0,.26-.11.32Zm-.74-12.17s-.1-.01-.14-.04c-.32-.22-.47-.53-.43-.88.05-.4.38-.79.79-.94.33-.11.65-.06.89.17.05.04.07.11.07.17,0,.65-.13,1.52-1.2,1.52Zm2.4,32.95s-.06,0-.08-.01c-.6-.22-.81-.6-.89-.87-.21-.8.45-1.7.74-2.05.08-.1.21-.12.32-.04.72.49.51,2.2.12,2.86-.04.08-.12.12-.21.12Zm2.02,14.76c-.16.2-.3.37-.32.6,0,.08-.06.15-.13.19-.03.02-.07.03-.11.03-.04,0-.08-.01-.12-.03-.54-.31-1.03-.72-.94-1.57,0-.09.07-.17.15-.2.25-.09.51-.18.75-.24-.05-.05-.11-.08-.16-.14-.29-.4-.35-1.08-.13-1.47.11-.19.31-.28.49-.29.39-.06.69.1.85.44.21.46.1,1.17-.13,1.49.07.04.15.07.21.15.03.05.05.11.04.16-.04.39-.26.66-.44.89Zm4.38-7.93c-.22.47-.73.68-1.22.68-.16,0-.32-.02-.46-.06-.64-.18-.99-.68-.92-1.3,0-.09.07-.16.15-.2.78-.31,1.53-.13,2.4.6.08.07.11.19.06.28Zm.5-99.62s-.1.05-.15.05c-.02,0-.03,0-.05,0-1.45-.3-2.95-.6-3.31-2.39-.02-.11.03-.22.13-.26.54-.26,1.22-.15,1.91.28.86.54,1.56,1.5,1.56,2.14,0,.07-.03.14-.09.18Zm.13-2.98c-.21-.19-.28-.45-.19-.73.02-.06.06-.11.12-.14.51-.25,1.29-.31,1.83-.13.33.11.57.3.7.56.01.03.02.07.02.11,0,.13-.05.37-.42.53-.23.1-.54.15-.86.15-.46,0-.94-.11-1.21-.35Zm4.58,113.73c-.15.11-.34.15-.54.15-.19,0-.4-.03-.62-.07-.35-.05-.71-.11-1.02-.05-.12.03-.22-.04-.27-.15-.3-.76-.48-1.79-.06-2.41.04-.06.1-.09.16-.1.07-.01.13,0,.19.05.31.25.63.46.93.67.54.37,1.06.72,1.45,1.2.04.05.06.11.05.17-.02.24-.11.42-.27.53Zm13.09,41.92c-.41.26-.61.38-.54,1.1,0,.06-.01.13-.05.18-.04.05-.1.08-.16.08-.03,0-.06.02-.09.02.26.14.46.39.55.82.02.11-.03.22-.14.27-.29.13-.58.23-.92.23-.21,0-.43-.04-.68-.14-.06-.02-.11-.07-.13-.13-.02-.06-.02-.12,0-.18-.07-.03-.14-.13-.16-.2-.01-.08,0-.19.05-.25.08-.07.15-.13.23-.19-.2-.02-.41-.09-.6-.31-.07-.08-.08-.2-.02-.29l.24-.37c.68-1.07,1.46-2.29,2.35-2.32.38-.04.71.18,1.01.58.06.08.07.2,0,.28-.32.43-.65.65-.93.82Zm.33-14.71c.36.07.62.27.75.56.03.06.03.13,0,.19-.14.36-.42.6-.8.7-.13.03-.26.05-.41.05-.52,0-1.11-.21-1.57-.57-.05-.04-.09-.11-.09-.18s.03-.14.08-.18c.43-.38,1.36-.7,2.02-.56Zm-.97-15.77c.14-.35.34-.58.6-.69.26-.11.57-.1.91.04.05.02.1.06.13.11.24.48.09.86-.03,1.17-.02.06-.07.11-.13.13-.13.06-.27.08-.41.08s-.3-.03-.44-.08c-.28-.11-.51-.32-.62-.58-.02-.06-.02-.12,0-.18Zm1.17,24.37c-.21.04-.4.07-.54.14.09.35.08.83-.05,1.19-.09.25-.24.43-.42.51-.03.01-.06.02-.1.02-.05,0-.1-.02-.14-.05-.69-.5-.56-1-.47-1.34.07-.27.11-.4-.12-.58-.06-.05-.09-.12-.09-.2.05-.98.43-1.28.87-1.63.07-.05.13-.11.2-.17.06-.05.13-.07.21-.05.07.02.13.07.16.14.24.56.59.53,1.02.5.33-.03.7-.06.96.24.06.07.07.16.04.24-.34.85-1,.96-1.54,1.05Zm5.42-28.57c-.51,0-1.05-.26-1.39-.63-.49-.54-.53-1.23-.08-1.8.04-.06.1-.09.17-.09.07,0,.13.02.18.07.17.17.41.29.67.42.56.28,1.25.62,1.25,1.63,0,.08-.04.16-.11.2-.21.14-.45.2-.7.2Zm.54,23.2c-.11.28-.34.46-.67.53-.09.02-.19.03-.29.03-.73,0-1.66-.44-2.02-.81-.07-.07-.09-.17-.05-.25.12-.3.37-.5.72-.56.79-.14,1.89.4,2.26.82.06.07.08.16.04.25Zm-1.12-17.2s.05.05.07.09c.13.31.16.48.07.65.33-.01.52.15.76.71.02.06.02.12,0,.18-.14.36-.47.6-.92.67-.1.02-.21.03-.33.03-.6,0-1.25-.23-1.54-.58-.04-.05-.06-.12-.06-.18s.04-.13.1-.17c.08-.06.27-.19.37-.28-.04-.03-.08-.05-.13-.08-.14-.08-.31-.19-.51-.35-.06-.04-.09-.11-.09-.18s.03-.14.08-.19c.52-.46,1.22-1.09,2.12-.32Zm-2.18-1.68h0c-.68,0-1.45-.51-1.69-1.11-.04-.1-.01-.2.07-.27.32-.27.84-.37,1.38-.25.54.12.96.43,1.16.85.03.06.03.13,0,.19-.15.38-.49.6-.92.6Zm-.15,12.44c.67.1,1.19.49,1.44,1.07.04.08.02.18-.04.25-.23.28-.59.43-1.04.43h-.03c-.8,0-1.76-.45-2.13-.87-.08-.09-.08-.22,0-.32.39-.45,1.11-.68,1.8-.57Zm1.27,19.5l-.16-.18.13.2c-.43.39-1.07.96-1.62.96-.05,0-.1,0-.15-.01-.15-.03-.37-.13-.51-.43-.03-.06-.03-.13,0-.19.19-.48.81-.83,1.32-.93.42-.08.78,0,1,.24.04.05.07.11.07.17,0,.06-.03.13-.08.17Zm3.37-2.85c-.48.38-.97.78-1.39,1.27-.07.08-.17.1-.27.07-.2-.08-.35-.27-.39-.49-.01-.08-.02-.21.03-.36-.05.02-.11.04-.16.06-.27.1-.57.19-.84.18l.02.35c0,.07-.02.14-.07.19-.22.22-.56.33-.95.33-.07,0-.14,0-.21-.01-.66-.07-1.27-.44-1.64-.98-.04-.06-.05-.13-.03-.2.02-.07.07-.12.13-.15.09-.04.18-.09.28-.15.23-.12.49-.27.77-.32-.07-.08-.12-.18-.13-.31-.02-.21.07-.43.28-.68.04-.05.11-.09.18-.09h.02c.63,0,1.26-.34,1.87-.68.87-.47,1.76-.96,2.72-.57.09-.47.29-.79.59-.92.23-.1.61-.12,1.11.3.06.05.09.12.09.2-.09,1.41-1.02,2.15-2,2.94Zm8.96-107.16c-.17,7.05-.32,14.08-.48,21.13-.15,7.24-.32,14.5-.48,21.74-.13,5.67-.25,11.33-.38,17-.06,2.27-.1,4.57-.15,6.86l-30.57-3.82v-99.56c.27.04.55.11.82.13.52.08,1.05.11,1.53.34.5.21.9.59,1.32.96,3.44,3.11,7.55,5.41,11.6,7.68,3.65,2.04,7.64,3.42,11.35,5.39.71.38,1.41.76,2.2.86.96.11,1.99-.23,2.85.21,1.38.69.76,4.53.73,5.98-.11,5.02-.23,10.07-.32,15.09Zm3.07,43.68c-.22.45-.79,1.16-1.45,1.27-.06.01-.12.02-.17.02-.24,0-.46-.09-.64-.26-.05-.04-.07-.11-.07-.17,0-.49.29-.81.57-1.12.15-.17.31-.35.42-.56.04-.08.12-.13.21-.13.26,0,.4.13.54.26.11.1.24.23.5.37.11.06.16.2.1.32Zm-.59-20.11c-.34.2-.79.31-1.2.31-.27,0-.52-.05-.71-.15-.08-.04-.13-.12-.13-.21,0-.49.21-.87.6-1.1.57-.34,1.45-.29,1.92-.03.08.04.13.12.13.21,0,.39-.22.73-.61.97Zm2.97,20.23c-.08.23-.15.44-.15.73,0,.07-.03.14-.09.19-.04.03-.09.05-.15.05-.02,0-.04,0-.06,0-.56-.14-1-.57-1.25-1.2-.3-.78-.24-1.7.15-2.29.07-.1.19-.13.3-.09.4.18.59.56.76.89.15.29.28.56.53.68.08.04.13.12.13.21,0,.34-.09.59-.17.84Zm.91-53.25c-.07.01-.13,0-.19-.03-.09-.06-.28-.18-.4-.24,0,.04-.02.1-.03.15-.03.16-.07.36-.14.61-.02.07-.07.12-.13.15-.03.01-.06.02-.1.02-.04,0-.07,0-.11-.03-.62-.31-1.47-.73-1.08-1.86.01-.03.03-.06.06-.09.24-.24.35-.33.58-.31-.13-.31-.05-.54.38-.97.04-.04.11-.07.17-.07.38,0,.73.22.96.61.35.58.43,1.47.17,1.94-.03.06-.09.1-.15.12Zm1.68,53.82s-.11.07-.17.07c-.51,0-.94-.31-1.16-.84-.18-.44-.16-.91.07-1.13.04-.04.11-.07.17-.07.6,0,1.14.33,1.34.83.16.4.07.82-.25,1.14Zm.71-2.15c-.09-.03-.16-.12-.16-.22-.02-.03-.09-.07-.13-.09-.11-.07-.26-.16-.28-.35,0-.11.04-.22.13-.32.16-.29.47-.48.88-.55.61-.1,1.27.11,1.69.53.05.05.07.11.07.18,0,.07-.03.13-.08.17l-.05.05c-.27.25-.78.7-1.49.7-.18,0-.37-.03-.58-.1Zm3.11,27.43c-.03.1-.13.16-.23.16-.02,0-.04,0-.06,0-1.42-.37-1.74-2.39-1.74-3.07,0-.08.04-.15.1-.19s.14-.06.22-.03c1.02.35,2.08,2.04,1.71,3.14Zm4.68-80.8c-.04.08-.13.13-.21.13-.03,0-.05,0-.08-.01-.56-.19-1.04-.78-1.2-1.46-.15-.66.02-1.29.47-1.74.06-.07.16-.08.24-.06.34.11.61.39.78.81.31.75.25,1.83,0,2.34Zm3.02-6.79c.04-.08.12-.13.21-.13.3,0,.56.15.74.43.41.64.36,1.9.12,2.43-.04.09-.13.14-.22.14-.32,0-.6-.16-.78-.46-.42-.68-.32-1.9-.07-2.41Zm-.28,5.88s.11-.07.17-.07c.39,0,.71.17.95.49.36.49.46,1.32.24,2.03-.02.07-.07.12-.13.15-.03.01-.06.02-.09.02-.04,0-.07,0-.11-.03-.51-.26-1.15-.99-1.27-1.67-.06-.36.02-.67.24-.91Zm1.29,81.81c-.08.07-.13.14-.18.21-.17.21-.36.46-.93.46-.09,0-.17-.05-.21-.13l-.14-.26c-.38-.7-.82-1.5-.42-1.9.04-.04.11-.07.17-.07,1.11,0,1.8.79,1.8,1.52,0,.07-.03.13-.08.18Zm-.02-50.74s-.09.04-.14.04c-.06,0-.12-.02-.17-.07-.08-.08-.16-.14-.23-.19-.22-.16-.48-.35-.48-.9,0-.04,0-.07.02-.11.29-.58.65-.64.82-.62.29.03.53.28.63.64.12.46-.06.94-.46,1.21Zm.69-5.45c-.02.07-.07.12-.14.14-.03.01-.06.02-.09.02-.04,0-.08,0-.11-.03-.64-.34-1.05-1.27-1.05-2.38,0-.13.11-.24.24-.24h.92c.13,0,.24.11.24.24,0,.17.03.35.06.55.07.45.17,1.01-.07,1.7Zm11.15-34.3c.03-.06.08-.1.14-.12.06-.02.13-.02.18.01l-.11.21.14-.2c.57.28,1.43.71,1.53,1.29.03.15.01.39-.22.63-.04.05-.11.07-.17.07-.52,0-1.07-.44-1.35-.88-.23-.37-.28-.73-.15-1.02Zm-4.35,7.67c-.28.03-.41.05-.5.33-.02.07-.08.13-.15.16-.31.1-.56.14-.78.14-.44,0-.73-.17-1.06-.35-.07-.04-.15-.08-.23-.13-.07-.04-.11-.1-.13-.18s.01-.15.07-.2c.43-.43.28-.74.08-1.13-.15-.29-.31-.63-.13-.98.04-.08.12-.13.21-.13.91,0,1.26.58,1.54,1.04.11.18.21.35.33.46.29-.21.75-.38,1.13-.39.25-.01.48.06.62.2.06.06.08.15.06.23-.21.83-.73.89-1.07.93Zm2.92-4.8c-.2-.17-.43-.35-.58-.6-.05.09-.13.18-.24.24-.18.1-.43.1-.74,0-.07-.02-.12-.07-.15-.14-.23-.59-.78-1.05-1.32-1.5-.76-.63-1.54-1.29-1.53-2.31-.47.09-.84.02-1.07-.21-.18-.18-.34-.52-.13-1.15.02-.07.08-.13.15-.15,1.35-.43,2.38.16,3.47.78.53.3,1.08.62,1.7.83.1.03.16.12.16.23,0,.22-.12.43-.31.55-.07.04-.19.1-.34.11.04.04.08.09.11.13.19.22.39.44.48.72l.32-.15c.07-.03.13-.03.2,0,.33.15.6.5.73.96.18.64.06,1.34-.31,1.88-.04.06-.1.1-.17.1,0,0-.01,0-.02,0-.06,0-.12-.03-.17-.07-.07-.07-.15-.14-.24-.21Zm3.6,86.96c-.07.35-.28.6-.59.71-.03,0-.05.01-.08.01-.42,0-.75-.24-.93-.67-.23-.54-.16-1.33.13-1.62.02-.03.06-.04.09-.06.31-.11.63-.04.89.19.38.33.59.94.49,1.44Zm1.05-83.93s-.12.06-.18.06c-.03,0-.05,0-.07-.01-.1-.04-.18-.09-.26-.14.06.19.06.41-.07.67-.04.08-.13.13-.21.13-.01,0-.03,0-.05,0l-.43-.09c-1.25-.24-2.66-.52-3.02-1.33-.15-.34-.09-.73.17-1.15.06-.09.16-.13.26-.11.52.13.84.37,1.1.56.38.28.58.43,1.22.1.05-.03.12-.04.18-.01.06.02.11.06.14.12.01.03.04.05.05.08.03-.29.19-.57.56-.81.1-.06.22-.05.3.03.36.35.68.73.68,1.45,0,.13-.11.24-.24.24,0,.08-.06.18-.13.22Zm1.63,57.89c-.04.09-.13.14-.22.14-.02,0-.04,0-.06,0-.62-.15-.87-.5-.98-.77-.3-.77.26-1.74.51-2.12.07-.1.2-.14.31-.08.77.41.74,2.13.43,2.83Zm3.41,14.59c-.14.22-.26.4-.26.63,0,.08-.04.16-.11.2-.04.03-.09.04-.13.04-.03,0-.07,0-.1-.02-.57-.25-1.1-.61-1.1-1.46,0-.09.05-.17.13-.21.24-.12.48-.23.71-.32-.06-.04-.12-.07-.17-.13-.33-.36-.46-1.04-.29-1.44.09-.2.25-.33.45-.34.37-.1.7.02.89.34.26.44.23,1.15.03,1.5.08.03.16.05.22.12.04.04.06.1.06.16,0,.39-.18.68-.35.93Zm3.5-8.36c-.19.56-.79.82-1.33.82-.1,0-.19,0-.28-.02-.65-.11-1.06-.57-1.06-1.19,0-.09.05-.17.13-.21.75-.4,1.51-.3,2.45.33.09.06.13.17.09.28Zm1.46-61.26c-.21.13-.43.2-.66.2-.29,0-.59-.12-.84-.35-.44-.4-.62-1.02-.41-1.44.02-.05.06-.09.11-.11.35-.16.78-.11,1.15.13.47.3.75.81.75,1.37,0,.08-.04.16-.11.2Zm2.51-7.9c.42-.21.91-.19,1.25.06.21.16.55.55.41,1.39-.01.07-.06.14-.12.17-.22.11-.44.16-.65.16-.46,0-.92-.2-1.33-.39l-.11-.05c-.09-.04-.14-.12-.14-.22,0-.48.26-.9.7-1.13Zm.09,16.42c.33-.11.65-.06.89.17.05.04.07.11.07.17,0,.65-.13,1.52-1.2,1.52-.05,0-.1-.01-.14-.04-.32-.22-.47-.53-.43-.88.05-.4.38-.79.79-.94Zm-1,12.4s.1-.07.16-.07c.89,0,1.1.51,1.3,1.01.05.12.1.24.16.37.06.12,0,.26-.11.32s-.25.09-.39.09c-.45,0-.94-.28-1.19-.64-.26-.37-.23-.79.07-1.07Zm3.32,50.85c-.26.25-.69.23-1.15.21-.34-.02-.71-.03-1.01.06-.02,0-.05.01-.07.01-.09,0-.17-.05-.21-.13-.19-.35-.76-1.56-.32-2.39.03-.06.09-.1.15-.12.06-.02.13,0,.19.03.34.21.67.39,1,.56.58.31,1.13.6,1.57,1.04.04.04.07.11.07.17,0,.24-.07.43-.21.56Z"/></g></svg>