<?xml version="1.0" encoding="UTF-8"?>
<svg id="Layer_2" xmlns="http://www.w3.org/2000/svg" viewBox="0 0 68.05 68.04">
    <g id="Layer_1-2">
        <path class="cls-1" d="m50.82,1.85l-6.15,6.15,15.37,15.37,6.15-6.15c2.47-2.47,2.47-6.52,0-8.99l-6.39-6.39c-2.47-2.47-6.52-2.47-8.99,0ZM3.73,53.25l-1.16,4.35L.03,67.1c-.15.56.35,1.06.91.91l9.51-2.53,4.35-1.16,5.89-1.58L57.68,25.74l-15.37-15.37L5.31,47.36l-1.58,5.89Zm9.66,8.62l-1.87.5-3.05.83c-2.2.59-4.21-1.42-3.62-3.62l.82-3.06.5-1.87,7.23,7.23Z"/>
    </g>
</svg>