<?xml version="1.0" encoding="UTF-8"?>
    <svg id="Layer_2" xmlns="http://www.w3.org/2000/svg" viewBox="0 0 72.7 59.8">
        <g id="Layer_1-2">
            <path class="cls-1" d="m25.53,0C11.43,0,0,11.43,0,25.53s11.43,25.53,25.53,25.53c5.7,0,11.01-1.87,15.23-5.05,4.62-3.43,8.03-8.37,9.5-14.1.51-2.04.79-4.17.79-6.38C51.07,11.43,39.63,0,25.53,0Zm8.28,40.4c-2.44,1.39-5.28,2.16-8.28,2.16-9.39,0-17.02-7.63-17.02-17.02s7.63-17.02,17.02-17.02,17.02,7.63,17.02,17.02c0,.71-.06,1.42-.14,2.13-.68,5.48-3.97,10.16-8.6,12.74Z"/>
            <path class="cls-1" d="m71.32,55.97c-1.65,2.47-4.37,3.83-7.15,3.83-1.59,0-3.21-.45-4.65-1.39l-18.75-12.4-4.31-2.84c-1.11-.74-2.01-1.67-2.64-2.78,4.62-2.58,7.91-7.26,8.6-12.74,1.16.2,2.33.62,3.4,1.3l4.45,2.95,18.61,12.28c3.92,2.58,4.99,7.89,2.44,11.77Z"/>
        </g>
    </svg>