<?xml version="1.0" encoding="UTF-8"?>
<svg id="Layer_2" xmlns="http://www.w3.org/2000/svg" viewBox="0 0 61.65 66.16">
    <g id="Layer_1-2">
        <polygon class="cls-1" points="19.49 18.73 21.65 66.16 12.28 66.16 7.54 18.73 19.49 18.73"/>
        <polygon class="cls-1" points="24.26 18.73 38.25 18.73 36.09 66.16 26.42 66.16 24.26 18.73"/>
        <polygon class="cls-1" points="54.97 18.73 50.22 66.16 40.86 66.16 43.02 18.73 54.97 18.73"/>
        <path class="cls-1" d="m61.65,11.86c0,1.3-1.07,2.37-2.37,2.37H2.37c-1.3,0-2.37-1.07-2.37-2.37s1.07-2.37,2.37-2.37h7.11c0-1.3.52-2.49,1.4-3.34.85-.88,2.04-1.4,3.34-1.4h11.86v-2.37c0-1.3,1.07-2.37,2.37-2.37h4.74c1.3,0,2.37,1.07,2.37,2.37v2.37h11.86c2.61,0,4.74,2.13,4.74,4.74h7.11c1.3,0,2.37,1.07,2.37,2.37Z"/>
    </g>
</svg>